<?xml version="1.0" standalone="no"?>
<!DOCTYPE svg PUBLIC "-//W3C//DTD SVG 20010904//EN"
 "http://www.w3.org/TR/2001/REC-SVG-20010904/DTD/svg10.dtd">
<svg version="1.0" xmlns="http://www.w3.org/2000/svg"
 width="617.000000pt" height="527.000000pt" viewBox="0 0 617.000000 527.000000"
 preserveAspectRatio="xMidYMid meet">
<metadata>
Created by potrace 1.16, written by Peter Selinger 2001-2019
</metadata>
<g transform="translate(0.000000,527.000000) scale(0.100000,-0.100000)"
fill="#000000" stroke="none">
<path d="M5651 4663 c82 -189 -1 -443 -216 -658 -106 -107 -216 -191 -330
-254 -22 -12 -58 -33 -80 -46 -22 -13 -62 -31 -90 -40 -27 -10 -55 -21 -60
-26 -6 -4 -48 -23 -95 -42 -47 -19 -107 -45 -133 -57 -74 -33 -422 -155 -572
-200 -33 -10 -105 -34 -160 -53 -90 -31 -279 -90 -330 -104 -11 -2 -83 -24
-160 -48 -77 -24 -194 -60 -260 -80 -123 -36 -137 -41 -335 -119 -107 -41
-219 -95 -276 -132 -67 -44 -18 -130 103 -178 66 -27 242 -50 302 -40 45 7
156 50 198 75 17 11 69 32 115 48 45 16 126 47 178 69 52 21 124 49 160 61 67
23 243 92 295 116 17 8 66 28 110 44 44 17 116 44 160 61 44 17 95 36 113 41
47 14 326 121 379 145 17 8 34 14 37 14 4 0 38 16 77 35 39 19 76 35 82 35 35
0 284 131 432 228 368 241 534 518 496 829 -13 103 -40 191 -73 234 -13 16
-33 42 -46 59 -35 44 -44 36 -21 -17z"/>
<path d="M3368 4682 l-38 -3 -1 -107 c-1 -59 -3 -132 -4 -162 -2 -30 -6 -134
-9 -230 -14 -353 -32 -475 -88 -585 -71 -141 -168 -185 -297 -136 -41 15 -124
70 -141 93 -3 4 -44 47 -90 96 -106 110 -230 248 -295 327 -27 33 -81 96 -120
140 -40 44 -93 106 -119 138 -97 121 -115 137 -150 130 -27 -5 -101 -40 -169
-80 -102 -59 -427 -371 -470 -452 -42 -77 -23 -129 71 -191 26 -17 47 -35 47
-40 0 -15 54 -51 66 -44 8 4 9 3 5 -4 -4 -8 3 -16 19 -22 34 -13 38 -13 29 1
-29 47 337 -214 415 -296 53 -56 111 -162 111 -205 0 -41 -42 -106 -95 -148
-67 -52 -91 -63 -220 -102 -127 -38 -315 -109 -315 -120 0 -4 35 -15 78 -25
170 -39 244 -95 179 -138 -60 -39 -297 -103 -497 -133 -52 -8 -102 -17 -110
-20 -14 -5 -111 -18 -230 -30 -85 -9 -119 -23 -141 -58 -27 -44 -24 -71 21
-185 22 -55 40 -103 40 -107 0 -19 141 -356 186 -444 49 -96 64 -110 116 -110
71 0 279 80 578 222 58 28 121 56 140 63 19 7 107 45 195 85 88 40 180 81 205
92 25 11 99 47 166 79 67 33 124 59 127 59 12 0 536 249 577 274 14 8 66 35
115 59 100 49 185 94 290 152 39 21 100 53 138 72 37 18 67 35 67 37 0 5 -49
-7 -150 -39 -141 -43 -278 -74 -410 -90 -69 -8 -152 -20 -185 -25 -220 -36
-604 16 -741 101 -45 27 -84 85 -84 124 0 85 112 196 285 283 159 79 625 234
1040 346 72 19 162 44 200 55 39 12 138 39 221 61 82 21 164 45 181 52 28 12
24 13 -52 14 -90 1 -137 20 -169 69 -20 31 -21 109 -1 166 24 67 105 221 131
249 12 14 46 68 75 120 28 52 69 127 90 166 22 39 39 83 39 96 0 24 -27 58
-46 58 -5 0 -25 13 -44 28 -19 16 -127 65 -240 109 -156 62 -228 85 -300 96
-120 19 -175 24 -222 19z"/>
<path d="M3945 2609 c-68 -52 -197 -135 -270 -174 -38 -21 -74 -41 -80 -46 -9
-7 -40 -25 -210 -122 -38 -22 -101 -57 -140 -77 -38 -20 -95 -52 -125 -71 -61
-40 -150 -90 -254 -143 -38 -20 -74 -40 -80 -45 -6 -6 -88 -48 -181 -96 -93
-47 -174 -90 -179 -95 -6 -6 -15 -10 -22 -10 -17 0 -126 -51 -121 -57 3 -2 22
3 42 11 92 39 266 38 319 0 66 -49 79 -192 31 -354 -15 -52 -31 -99 -35 -105
-3 -5 -13 -26 -20 -45 -15 -40 -67 -151 -153 -325 -57 -113 -127 -272 -127
-286 0 -3 19 -12 43 -19 23 -7 69 -21 102 -31 205 -63 585 -110 767 -94 71 7
84 11 109 37 31 31 37 74 20 132 -10 32 -36 215 -47 321 -3 33 -12 107 -21
165 -21 144 -14 249 22 323 42 85 52 91 148 92 66 0 91 -4 126 -22 25 -13 46
-23 48 -23 1 0 -30 34 -71 76 -195 202 -204 432 -26 654 28 36 111 126 183
200 183 187 252 260 247 260 -3 0 -23 -14 -45 -31z"/>
</g>
</svg>
